HIERARCHY
ROOT Hips
{
  OFFSET 3.13124 94.3669 -3.18751
  CHANNELS  6 Xposition Yposition Zposition Zrotation Xrotation Yrotation
  JOINT LeftUpLeg
  {
    OFFSET 8.64259 1.95398 -2.38835
    CHANNELS 3 Zrotation Xrotation Yrotation
    JOINT LeftLeg
    {
      OFFSET 43.7702 0 0
      CHANNELS 3 Zrotation Xrotation Yrotation
      JOINT LeftFoot
      {
        OFFSET 40.6238 0 0
        CHANNELS 3 Zrotation Xrotation Yrotation
        JOINT LeftToeBase
        {
          OFFSET 12.7242 0 0
          CHANNELS 3 Zrotation Xrotation Yrotation
          End Site
          {
            OFFSET 0 0 0
          }
        }
      }
    }
  }
  JOINT RightUpLeg
  {
    OFFSET -8.2249 1.95398 -2.59336
    CHANNELS 3 Zrotation Xrotation Yrotation
    JOINT RightLeg
    {
      OFFSET 43.5653 0 0
      CHANNELS 3 Zrotation Xrotation Yrotation
      JOINT RightFoot
      {
        OFFSET 40.6238 0 0
        CHANNELS 3 Zrotation Xrotation Yrotation
        JOINT RightToeBase
        {
          OFFSET 12.7242 0 0
          CHANNELS 3 Zrotation Xrotation Yrotation
          End Site
          {
            OFFSET 0 0 0
          }
        }
      }
    }
  }
  JOINT Spine
  {
    OFFSET 0.165834 0.87714 6.61349
    CHANNELS 3 Zrotation Xrotation Yrotation
    JOINT Spine1
    {
      OFFSET 7.38962 1.71661e-005 0
      CHANNELS 3 Zrotation Xrotation Yrotation
      JOINT Spine2
      {
        OFFSET 11.9445 1.14441e-005 0
        CHANNELS 3 Zrotation Xrotation Yrotation
        JOINT Spine3
        {
          OFFSET 14.7254 4.19617e-005 0
          CHANNELS 3 Zrotation Xrotation Yrotation
          JOINT Spine4
          {
            OFFSET 10.9679 0 0
            CHANNELS 3 Zrotation Xrotation Yrotation
            JOINT RightShoulder
            {
              OFFSET 2.46616 -1.6653 3.69651
              CHANNELS 3 Zrotation Xrotation Yrotation
              JOINT RightArm
              {
                OFFSET 13.0012 0 0
                CHANNELS 3 Zrotation Xrotation Yrotation
                JOINT RightForeArm
                {
                  OFFSET 28.7848 1.52588e-005 0
                  CHANNELS 3 Zrotation Xrotation Yrotation
                  JOINT RightHand
                  {
                    OFFSET 26.5688 1.52588e-005 0
                    CHANNELS 3 Zrotation Xrotation Yrotation
                    End Site
                    {
                      OFFSET 0 0 0
                    }
                  }
                }
              }
            }
            JOINT LeftShoulder
            {
              OFFSET 2.38034 -1.29275 -3.75231
              CHANNELS 3 Zrotation Xrotation Yrotation
              JOINT LeftArm
              {
                OFFSET 16.3182 6.10352e-005 0
                CHANNELS 3 Zrotation Xrotation Yrotation
                JOINT LeftForeArm
                {
                  OFFSET 27.0901 0 0
                  CHANNELS 3 Zrotation Xrotation Yrotation
                  JOINT LeftHand
                  {
                    OFFSET 24.5451 1.52588e-005 0
                    CHANNELS 3 Zrotation Xrotation Yrotation
                    End Site
                    {
                      OFFSET 0 0 0
                    }
                  }
                }
              }
            }
            JOINT Neck
            {
              OFFSET 5.0226 -0.0266342 0
              CHANNELS 3 Zrotation Xrotation Yrotation
              JOINT Head
              {
                OFFSET 6.69363 2.86102e-005 0
                CHANNELS 3 Zrotation Xrotation Yrotation
                End Site
                {
                  OFFSET 0 0 0
                }
              }
            }
          }
        }
      }
    }
  }
}
MOTION
Frames:	15
Frame Time:	0.0333333
-3.25381 97.0411 -17.0851 117.349 -89.9928 117.449 -171.13 3.0748 91.8899 -9.49203 8.69504 1.61923 63.6592 1.32144 0.687065 28.7808 4.35752e-006 -2.84998e-006 -179.881 1.95824 90.4621 -7.73886 0.284996 0.0141041 62.8068 -1.17389 -0.591646 28.7808 1.33967e-005 2.34472e-005 0.00811608 6.34327 -90.1021 14.1935 6.65143e-006 -3.52465e-008 2.52251 1.84983e-006 -6.42774e-006 -20.0127 -5.51019e-007 8.11725e-006 0 6.98852e-018 -0 100.938 -18.5349 -85.2015 15.6792 44.4646 -38.453 -3.26666 0.0046921 -4.91075 -5.37983 -0.320017 -0.0162336 -79.0241 -21.582 94.2411 7.36107 -38.9142 -20.036 0.422862 40.2764 -6.74524 -0.004973 0.0277734 1.3507 1.75387 0.00147578 0.0106778 -7.41203 -0.00162335 -0.00599915 
-3.30734 97.0429 -17.1089 129.612 -89.9255 129.695 -171.107 3.05229 91.921 -9.47362 8.67815 1.60562 63.6326 1.15281 0.590898 28.7808 4.35752e-006 -2.84998e-006 -179.87 1.90418 90.4879 -7.69603 0.346143 0.0132915 62.7526 -1.20635 -0.609409 28.7808 1.33967e-005 2.34472e-005 0.00857274 6.34316 -90.1083 14.1935 6.65143e-006 -3.69715e-005 2.52255 1.84983e-006 -4.34117e-005 -20.0126 1.66017e-005 -2.54986e-005 3.79399e-005 1.7253e-005 -3.33762e-005 100.9 -18.4295 -85.1528 15.7207 44.3929 -38.4706 -3.26666 0.0046921 -4.91075 -5.37983 -0.320017 -0.0162336 -79.0635 -21.5888 94.2966 7.37707 -38.9829 -20.0733 0.451983 40.1367 -6.75569 -0.0186688 0.0260238 1.29865 1.76302 0.0206916 0.168182 -7.43858 -0.0235418 -0.0926821 
-3.37383 96.9936 -17.1368 82.0329 -89.9036 82.0948 -171.137 3.19131 91.8976 -9.58624 8.69178 1.63352 63.7127 1.33688 0.695517 28.7808 4.35752e-006 -2.84998e-006 -179.874 2.91683 90.5813 -9.54774 0.235466 0.00407682 62.8984 -1.98898 -1.06781 28.7808 1.33967e-005 2.34472e-005 0.00671296 6.34352 -90.0851 14.1927 -0.000252517 0.00072518 2.52172 -0.000200396 0.000727154 -20.0134 -0.000374472 0.000645916 -0.000787821 -0.00037276 0.00064098 100.953 -18.45 -85.1605 15.7483 44.3509 -38.5089 -3.26666 0.0046921 -4.91075 -5.37983 -0.320017 -0.0162336 -78.9551 -21.4492 94.3774 7.20835 -38.9997 -20.1826 0.667406 40.3367 -6.84302 -0.350171 0.00861507 1.24303 1.84247 -0.0178605 0.126493 -7.56099 0.0153151 -0.0451015 
-3.45319 97.0755 -17.1478 135.561 -89.8049 135.679 -171.056 3.01182 92.0399 -9.46373 8.77435 1.64304 63.4898 1.11807 0.569426 28.7808 4.35752e-006 -2.84998e-006 -179.757 0.801328 90.5903 -5.58692 0.917624 0.0474858 62.1292 -0.974586 -0.463771 28.7808 1.33967e-005 2.34472e-005 0.00557494 6.34308 -90.1133 14.1727 -0.00297166 0.0212465 2.50171 -0.00203213 0.0213345 -20.0334 -0.0092188 0.0193744 -0.020792 -0.00922414 0.0193601 100.873 -18.5832 -85.347 15.6792 44.4439 -38.388 -3.26666 0.0046921 -4.91075 -5.37983 -0.320017 -0.0162336 -78.9841 -21.3751 94.3305 7.31232 -39.045 -20.1464 0.527248 40.08 -6.77195 -0.0733893 0.0231322 1.29025 1.47648 0.0314123 0.111906 -7.23384 0.0218612 -0.0813901 
-3.53225 97.06 -17.1811 129.365 -89.8694 129.477 -171.057 3.04758 92.0702 -9.36803 8.81192 1.65021 63.4969 1.16751 0.599801 28.7808 4.35752e-006 -2.84998e-006 -179.756 1.06365 90.6812 -5.96067 0.57936 0.0275834 62.0133 -1.32221 -0.664823 28.7808 1.33967e-005 2.34472e-005 0.0152747 6.34286 -90.1248 14.186 0.0163261 0.032026 2.515 0.0177277 0.0312731 -20.0202 0.00595705 0.0354568 -0.00750964 0.00594646 0.035449 100.857 -18.565 -85.4101 15.6975 44.3872 -38.3247 -3.26666 0.0046921 -4.91075 -5.37983 -0.320017 -0.0162336 -78.9588 -21.3448 94.369 7.22651 -39.0543 -20.2959 0.570052 40.2155 -6.76951 -0.0225354 0.0234074 1.18015 1.36155 0.0262792 0.217965 -7.25016 0.00108013 -0.182249 
-3.59218 97.0261 -17.1997 150.604 -89.8467 150.709 -170.997 3.23792 92.1149 -9.80055 8.82297 1.68003 63.5316 0.830332 0.398738 28.7808 4.35752e-006 -2.84998e-006 -179.755 2.41545 90.746 -8.76187 0.241226 0.00615859 62.6898 -1.93243 -1.03502 28.7808 1.33967e-005 2.34472e-005 0.0227145 6.34393 -90.0448 14.1793 0.0422385 0.0194937 2.50839 0.0430549 0.0175996 -20.0268 0.0344235 0.0312803 -0.014125 0.0344242 0.0312809 100.887 -18.5992 -85.3312 15.7577 44.288 -38.3695 -3.26666 0.0046921 -4.91075 -5.37983 -0.320017 -0.0162336 -78.9753 -21.3125 94.3313 7.11554 -39.0403 -20.4388 0.705148 40.5324 -6.80142 -0.266937 0.0081644 0.996848 1.22041 0.00505818 0.241406 -7.32717 -0.0269255 -0.184994 
-3.68202 97.0581 -17.2049 149.844 -89.739 149.962 -170.994 3.01314 92.1689 -9.52914 8.85487 1.69808 63.5275 0.998243 0.500965 28.7808 4.35752e-006 -2.84998e-006 -179.681 0.718375 90.7252 -5.55545 0.948616 0.0495206 62.3817 -0.846268 -0.392823 28.7808 1.33967e-005 2.34472e-005 0.0202087 6.3433 -90.0998 14.1793 0.0312072 0.0337607 2.5084 0.0326651 0.0323529 -20.0267 0.0196206 0.0415806 -0.0141009 0.019619 0.041583 100.798 -18.6043 -85.5554 15.7185 44.3165 -38.2283 -3.26666 0.0046921 -4.91075 -5.37983 -0.320017 -0.0162336 -79.0265 -21.4586 94.2233 7.27584 -39.0621 -20.35 0.550482 40.2451 -6.77102 -0.10687 0.0192462 1.18183 0.737902 0.0257579 0.414693 -7.04428 -0.0231267 -0.326648 
-3.74575 97.0656 -17.2014 147.648 -89.6671 147.852 -170.935 2.98724 92.294 -9.53214 8.99691 1.75142 63.511 0.87367 0.429814 28.7808 4.35752e-006 -2.84998e-006 -179.61 0.750577 90.896 -5.72483 0.962523 0.0497449 62.063 -1.18559 -0.586856 28.7808 1.33967e-005 2.34472e-005 0.0128448 6.34325 -90.1035 14.1823 0.0174397 0.0423365 2.51132 0.0192859 0.0415227 -20.0238 0.00390768 0.0456182 -0.0111744 0.00390381 0.0456186 100.748 -18.8414 -85.6628 15.7152 44.3277 -38.2515 -3.26666 0.0046921 -4.91075 -5.37983 -0.320017 -0.0162336 -79.0207 -21.3411 94.2269 7.16584 -38.995 -20.325 0.536323 40.1808 -6.75815 -0.0482137 0.0211959 1.14835 0.479648 0.0208417 0.207684 -7.07548 -0.000373152 -0.186977 
-3.80693 97.0634 -17.2184 153.426 -89.6652 153.624 -170.924 3.015 92.3156 -9.58641 8.93523 1.75399 63.4356 0.840927 0.40795 28.7808 4.35752e-006 -2.84998e-006 -179.589 0.770951 90.9317 -5.76829 0.845488 0.0429086 61.9691 -1.33801 -0.675232 28.7808 1.33967e-005 2.34472e-005 0.0202664 6.34342 -90.092 14.1858 0.0343534 0.0427749 2.51486 0.0362016 0.0412082 -20.0203 0.0199103 0.0511236 -0.00764162 0.0199059 0.0511176 100.782 -18.8509 -85.5798 15.7791 44.2163 -38.2843 -3.26666 0.0046921 -4.91075 -5.37983 -0.320017 -0.0162336 -79.0053 -21.4414 94.2647 7.14532 -38.9591 -20.3919 0.537416 40.1468 -6.79604 -0.193803 0.0199558 1.15734 0.478654 0.010054 0.300186 -7.27149 -0.0188899 -0.302523 
-3.88299 97.0494 -17.2285 165.072 -89.5991 165.31 -170.861 2.92155 92.4188 -9.58764 9.12523 1.80947 63.6529 0.707351 0.336994 28.7808 4.35752e-006 -2.84998e-006 -179.543 0.549596 90.9868 -5.53906 1.13543 0.0603474 62.4989 -0.71952 -0.322039 28.7808 1.33967e-005 2.34472e-005 0.0224989 6.34342 -90.0921 14.1877 0.0386774 0.0392658 2.51678 0.040363 0.0375155 -20.0184 0.0250729 0.0490709 -0.00572957 0.0250784 0.0490659 100.718 -18.9264 -85.7317 15.7159 44.3004 -38.1729 -3.26666 0.0046921 -4.91075 -5.37983 -0.320017 -0.0162336 -79.0026 -21.5262 94.2792 7.17707 -38.9449 -20.325 0.450293 40.0777 -6.71606 -0.0322032 0.0200092 1.04436 0.23834 0.0102637 0.274152 -7.15255 -0.0180445 -0.284705 
-3.94567 97.055 -17.237 171.707 -89.5145 171.929 -170.831 2.92193 92.4431 -9.76174 9.03711 1.8254 63.6355 0.690818 0.323466 28.7808 4.35752e-006 -2.84998e-006 -179.502 0.326983 91.0069 -5.29437 1.25262 0.0682071 62.6953 -0.531869 -0.219479 28.7808 1.33967e-005 2.34472e-005 0.0110241 6.34424 -90.042 14.1858 0.0283937 0.0689589 2.51482 0.0313951 0.0676338 -20.0203 0.0063497 0.0742984 -0.00767152 0.00636118 0.0743019 100.586 -19.2786 -86.0339 15.5539 44.5692 -38.0578 -3.26666 0.0046921 -4.91075 -5.37983 -0.320017 -0.0162336 -79.0095 -21.3823 94.2529 7.2349 -38.8686 -20.0365 0.43713 40.1611 -6.7067 0.0472145 0.0226474 0.984417 -0.154895 0.0308774 0.0107295 -6.88393 0.0374074 -0.188694 
-4.00691 97.0587 -17.2438 175.247 -89.4849 175.553 -170.749 2.87937 92.5734 -9.6952 9.09633 1.80606 63.6405 0.78546 0.37965 28.7808 4.35752e-006 -2.84998e-006 -179.449 0.386892 91.1403 -5.42865 1.1091 0.0727346 62.365 -0.795055 -0.365291 28.7808 1.33967e-005 2.34472e-005 0.0238942 6.34987 -90.0627 14.1742 0.050599 0.0636515 2.50323 0.0533503 0.0613529 -20.0319 0.0291217 0.075914 -0.0192834 0.0291297 0.0759118 100.636 -19.3369 -85.9047 15.5471 44.5737 -38.0329 -3.26666 0.0046921 -4.91075 -5.37983 -0.320017 -0.0162336 -79.0524 -21.2718 94.1505 7.18514 -38.7856 -19.9027 0.433174 40.2565 -6.61874 -0.156553 0.00798367 0.721293 -0.179421 -0.0214116 -0.132973 -6.85562 0.000396377 -0.0804986 
-4.0609 97.0612 -17.2195 177.366 -89.327 177.736 -170.649 2.75809 92.6949 -9.76863 9.14749 1.81862 63.6857 0.734886 0.349953 28.7808 4.35752e-006 -2.84998e-006 -179.381 0.144315 91.2437 -5.28996 1.15598 0.0745526 62.373 -0.806243 -0.373962 28.7808 1.33967e-005 2.34472e-005 0.0239767 6.36747 -90.0524 14.139 0.0500975 0.0488118 2.46801 0.0522111 0.0465527 -20.0671 0.0331212 0.0616244 -0.0544978 0.0331136 0.0616062 100.633 -19.3354 -85.903 15.5114 44.6151 -37.9508 -3.26666 0.0046921 -4.91075 -5.37983 -0.320017 -0.0162336 -79.0618 -21.3114 94.1405 7.33117 -38.7239 -19.7 0.294776 40.1517 -6.56999 -0.0618343 0.0121956 0.719906 -0.291641 -0.00574464 -0.0923952 -6.73 0.0108285 -0.13658 
-4.00121 97.0367 -17.2891 152.945 -89.7233 153.041 -171.008 3.15442 92.2771 -9.7068 8.79584 1.85847 63.522 0.578016 0.257926 28.7808 4.35752e-006 -2.84998e-006 -179.574 0.640081 90.8917 -5.40406 1.29512 0.0699229 63.0422 -0.200353 -0.0335485 28.7808 1.33967e-005 2.34472e-005 0.00951096 6.32134 -90.035 14.2312 0.0335651 0.114447 2.56025 0.038577 0.112849 -19.9749 -0.00238425 0.119243 0.0377922 -0.00238543 0.119236 100.621 -19.287 -85.948 15.4458 44.6987 -37.8284 -3.26666 0.0046921 -4.91075 -5.37983 -0.320017 -0.0162336 -79.0587 -21.4136 94.141 7.4955 -38.7594 -19.5318 0.200325 40.0489 -6.54571 0.244451 0.0285854 0.841243 -0.454424 0.0131533 0.0286596 -6.5131 0.0192797 -0.241004 
-4.14168 97.0789 -17.2379 -178.318 -89.1606 -177.906 -170.538 2.6312 92.8288 -9.79792 9.18963 1.79256 63.6541 0.78155 0.375839 28.7808 4.35752e-006 -2.84998e-006 -179.325 0.0624795 91.3641 -5.40583 1.00233 0.0528794 61.9994 -1.21775 -0.608801 28.7808 1.33967e-005 2.34472e-005 0.0309147 6.39571 -90.0548 14.0825 0.0644682 0.0502548 2.41151 0.0666136 0.0473668 -20.1236 0.0463805 0.0673062 -0.111004 0.0463823 0.067308 100.722 -19.3687 -85.6919 15.4683 44.7057 -37.9808 -3.26666 0.0046921 -4.91075 -5.37983 -0.320017 -0.0162336 -78.9556 -21.3396 94.3702 7.38711 -38.7878 -19.7351 0.199186 40.0366 -6.48162 0.213183 0.0238438 0.709132 -0.272044 -0.041443 -0.158113 -6.57126 -0.0178839 -0.0319319 
